<svg width="90" height="90" viewBox="0 0 90 90" version="1.1" xmlns="http://www.w3.org/2000/svg" xmlns:xlink="http://www.w3.org/1999/xlink">
<title>ico-cd-scidev</title>
<desc>Created using Figma</desc>
<g id="Canvas" transform="translate(926 3073)">
<rect x="-926" y="-3073" fill="#0000" fill-opacity="0" width="90" height="90"/>
<clipPath id="clip-0" clip-rule="evenodd">
<path d="M -926 -3073L -836 -3073L -836 -2983L -926 -2983L -926 -3073Z" fill="#FFFFFF"/>
</clipPath>
<g id="ico-cd-scidev" clip-path="url(#clip-0)">
<g id="Union">
<use xlink:href="#path0_fill" transform="translate(-925 -3068)" fill="#CDCFD4"/>
</g>
</g>
</g>
<defs>
<path id="path0_fill" fill-rule="evenodd" d="M 30 4C 30 6.20923 28.2092 8 26 8C 25.6109 8 25.2348 7.94434 24.8792 7.84082L 21.8059 13.1492C 22.543 13.8748 23 14.884 23 16C 23 17.116 22.543 18.1252 21.8059 18.8508L 24.8792 24.1592C 25.2348 24.0557 25.6109 24 26 24C 27.8639 24 29.4299 25.2747 29.874 27L 38.126 27C 38.5701 25.2747 40.1361 24 42 24C 42.3891 24 42.7652 24.0557 43.1208 24.1592L 46.1941 18.8508C 45.457 18.1252 45 17.116 45 16C 45 13.7908 46.7908 12 49 12C 51.2092 12 53 13.7908 53 16C 53 18.2092 51.2092 20 49 20C 48.6274 20 48.2666 19.949 47.9244 19.8538L 44.8393 25.1824C 45.5568 25.9053 46 26.9009 46 28C 46 29.1052 45.5518 30.106 44.8271 30.8298L 48.8962 38.1543C 49.2468 38.054 49.6171 38 50 38C 51.8639 38 53.4299 39.2747 53.874 41L 60.126 41C 60.5701 39.2747 62.1361 38 64 38C 64.3891 38 64.7652 38.0557 65.1208 38.1592L 68.1941 32.8508C 67.457 32.1252 67 31.116 67 30C 67 27.7908 68.7908 26 71 26C 73.2092 26 75 27.7908 75 30C 75 32.2092 73.2092 34 71 34C 70.6274 34 70.2666 33.949 69.9244 33.8538L 66.8393 39.1824C 67.5568 39.9053 68 40.9009 68 42C 68 43.0991 67.5568 44.0947 66.8393 44.8176L 69.9244 50.1462C 70.2666 50.051 70.6274 50 71 50C 73.2092 50 75 51.7908 75 54C 75 56.2092 73.2092 58 71 58C 68.7908 58 67 56.2092 67 54C 67 52.884 67.457 51.8748 68.1941 51.1492L 65.1208 45.8408C 64.7652 45.9443 64.3891 46 64 46C 62.1361 46 60.5701 44.7253 60.126 43L 53.874 43C 53.4299 44.7253 51.8639 46 50 46C 49.6171 46 49.2468 45.946 48.8962 45.8457L 44.8271 53.1702C 45.5518 53.894 46 54.8948 46 56C 46 57.0991 45.5568 58.0947 44.8393 58.8176L 47.9244 64.1462C 48.2666 64.051 48.6274 64 49 64C 50.8639 64 52.4299 65.2747 52.874 67L 59.126 67C 59.5701 65.2747 61.1361 64 63 64C 65.2092 64 67 65.7908 67 68C 67 70.2092 65.2092 72 63 72C 61.1361 72 59.5701 70.7253 59.126 69L 52.874 69C 52.4299 70.7253 50.8639 72 49 72C 46.7908 72 45 70.2092 45 68C 45 66.884 45.457 65.8748 46.1941 65.1492L 43.1208 59.8408C 42.7652 59.9443 42.3891 60 42 60C 40.1361 60 38.5701 58.7253 38.126 57L 29.874 57C 29.4299 58.7253 27.8639 60 26 60C 25.6109 60 25.2348 59.9443 24.8792 59.8408L 21.8059 65.1492C 22.543 65.8748 23 66.884 23 68C 23 69.116 22.543 70.1252 21.8059 70.8508L 24.8792 76.1592C 25.2348 76.0557 25.6109 76 26 76C 28.2092 76 30 77.7908 30 80C 30 82.2092 28.2092 84 26 84C 23.7908 84 22 82.2092 22 80C 22 78.9009 22.4432 77.9053 23.1607 77.1824L 20.0756 71.8538C 19.7334 71.949 19.3726 72 19 72C 17.1361 72 15.5701 70.7253 15.126 69L 8.87396 69C 8.42993 70.7253 6.86389 72 5 72C 2.79083 72 1 70.2092 1 68C 1 65.7908 2.79083 64 5 64C 6.86389 64 8.42993 65.2747 8.87396 67L 15.126 67C 15.5701 65.2747 17.1361 64 19 64C 19.3726 64 19.7334 64.051 20.0756 64.1462L 23.1607 58.8176C 22.4432 58.0947 22 57.0991 22 56C 22 54.8948 22.4482 53.894 23.1729 53.1702L 19.1038 45.8457C 18.7532 45.946 18.3829 46 18 46C 16.1361 46 14.5701 44.7253 14.126 43L 7.87396 43C 7.42993 44.7253 5.86389 46 4 46C 1.79083 46 0 44.2092 0 42C 0 39.7908 1.79083 38 4 38C 5.86389 38 7.42993 39.2747 7.87396 41L 14.126 41C 14.5701 39.2747 16.1361 38 18 38C 18.3829 38 18.7532 38.054 19.1038 38.1543L 23.1729 30.8298C 22.4482 30.106 22 29.1052 22 28C 22 26.9009 22.4432 25.9053 23.1607 25.1824L 20.0756 19.8538C 19.7334 19.949 19.3726 20 19 20C 17.1361 20 15.5701 18.7253 15.126 17L 8.87396 17C 8.42993 18.7253 6.86389 20 5 20C 2.79083 20 1 18.2092 1 16C 1 13.7908 2.79083 12 5 12C 6.86389 12 8.42993 13.2747 8.87396 15L 15.126 15C 15.5701 13.2747 17.1361 12 19 12C 19.3726 12 19.7334 12.051 20.0756 12.1462L 23.1607 6.81763C 22.4432 6.09473 22 5.09912 22 4C 22 1.79077 23.7908 0 26 0C 28.2092 0 30 1.79077 30 4ZM 29.874 55L 38.126 55C 38.5701 53.2747 40.1361 52 42 52C 42.3829 52 42.7532 52.054 43.1038 52.1543L 47.1729 44.8298C 46.4482 44.106 46 43.1052 46 42C 46 40.8948 46.4482 39.894 47.1729 39.1702L 43.1038 31.8457C 42.7532 31.946 42.3829 32 42 32C 40.1361 32 38.5701 30.7253 38.126 29L 29.874 29C 29.4299 30.7253 27.8639 32 26 32C 25.6171 32 25.2468 31.946 24.8962 31.8457L 20.8271 39.1702C 21.5518 39.894 22 40.8948 22 42C 22 43.1052 21.5518 44.106 20.8271 44.8298L 24.8962 52.1543C 25.2468 52.054 25.6171 52 26 52C 27.8639 52 29.4299 53.2747 29.874 55ZM 44 56C 44 57.1045 43.1046 58 42 58C 40.8954 58 40 57.1045 40 56C 40 54.8955 40.8954 54 42 54C 43.1046 54 44 54.8955 44 56ZM 26 58C 27.1046 58 28 57.1045 28 56C 28 54.8955 27.1046 54 26 54C 24.8954 54 24 54.8955 24 56C 24 57.1045 24.8954 58 26 58ZM 42 30C 43.1046 30 44 29.1045 44 28C 44 26.8955 43.1046 26 42 26C 40.8954 26 40 26.8955 40 28C 40 29.1045 40.8954 30 42 30ZM 52 42C 52 43.1045 51.1046 44 50 44C 48.8954 44 48 43.1045 48 42C 48 40.8955 48.8954 40 50 40C 51.1046 40 52 40.8955 52 42ZM 64 44C 65.1046 44 66 43.1045 66 42C 66 40.8955 65.1046 40 64 40C 62.8954 40 62 40.8955 62 42C 62 43.1045 62.8954 44 64 44ZM 20 42C 20 43.1045 19.1046 44 18 44C 16.8954 44 16 43.1045 16 42C 16 40.8955 16.8954 40 18 40C 19.1046 40 20 40.8955 20 42ZM 26 30C 27.1046 30 28 29.1045 28 28C 28 26.8955 27.1046 26 26 26C 24.8954 26 24 26.8955 24 28C 24 29.1045 24.8954 30 26 30Z"/>
</defs>
</svg>
