<svg width="90" height="90" viewBox="0 0 90 90" version="1.1" xmlns="http://www.w3.org/2000/svg" xmlns:xlink="http://www.w3.org/1999/xlink">
<title>ico-o-dedicatedteam</title>
<desc>Created using Figma</desc>
<g id="Canvas" transform="translate(926 -1256)">
<rect x="-926" y="1256" fill="#0000" fill-opacity="0" width="90" height="90"/>
<clipPath id="clip-0" clip-rule="evenodd">
<path d="M -926 1256L -836 1256L -836 1346L -926 1346L -926 1256Z" fill="#FFFFFF"/>
</clipPath>
<g id="ico-o-dedicatedteam" clip-path="url(#clip-0)">
<g id="Union">
<use xlink:href="#path0_fill" transform="translate(-924 1257)" fill="#CDCFD4"/>
<use xlink:href="#path1_fill" transform="translate(-924 1257)" fill="#CDCFD4"/>
<use xlink:href="#path2_fill" transform="translate(-924 1257)" fill="#CDCFD4"/>
<use xlink:href="#path3_fill" transform="translate(-924 1257)" fill="#CDCFD4"/>
<use xlink:href="#path4_fill" transform="translate(-924 1257)" fill="#CDCFD4"/>
<use xlink:href="#path5_fill" transform="translate(-924 1257)" fill="#CDCFD4"/>
<use xlink:href="#path6_fill" transform="translate(-924 1257)" fill="#CDCFD4"/>
<use xlink:href="#path7_fill" transform="translate(-924 1257)" fill="#CDCFD4"/>
<use xlink:href="#path8_fill" transform="translate(-924 1257)" fill="#CDCFD4"/>
</g>
</g>
</g>
<defs>
<path id="path0_fill" fill-rule="evenodd" d="M 57 12C 57 5.37256 62.3726 0 69 0C 75.6274 0 81 5.37256 81 12C 81 18.6274 75.6274 24 69 24C 62.3726 24 57 18.6274 57 12ZM 69 2C 63.4772 2 59 6.47717 59 12C 59 17.5228 63.4772 22 69 22C 74.5228 22 79 17.5228 79 12C 79 6.47717 74.5228 2 69 2Z"/>
<path id="path1_fill" fill-rule="evenodd" d="M 43 5C 36.3726 5 31 10.3726 31 17C 31 23.6274 36.3726 29 43 29C 49.6274 29 55 23.6274 55 17C 55 10.3726 49.6274 5 43 5ZM 33 17C 33 11.4772 37.4772 7 43 7C 48.5228 7 53 11.4772 53 17C 53 22.5228 48.5228 27 43 27C 37.4772 27 33 22.5228 33 17Z"/>
<path id="path2_fill" d="M 43 41C 43.5523 41 44 41.4478 44 42L 44 53C 44 53.5522 43.5523 54 43 54C 42.4477 54 42 53.5522 42 53L 42 42C 42 41.4478 42.4477 41 43 41Z"/>
<path id="path3_fill" fill-rule="evenodd" d="M 27.1442 35.0847C 27.8904 34.3575 28.9053 34 30 34L 56 34C 57.1552 34 58.1763 34.39 58.9089 35.1379C 59.6384 35.8826 60 36.8981 60 38L 60 58.5471C 60 58.8555 59.8578 59.1466 59.6145 59.3361L 53 64.4886L 53 84C 53 85.1624 52.6063 86.1843 51.8558 86.9153C 51.1096 87.6425 50.0947 88 49 88L 37 88C 35.8823 88 34.8705 87.603 34.1358 86.8704C 33.4007 86.1372 33 85.1248 33 84L 33 64.4833L 26.3787 59.2325C 26.1395 59.043 26 58.7544 26 58.4491L 26 38C 26 36.8376 26.3937 35.8158 27.1442 35.0847ZM 28.5398 36.5172C 28.2289 36.8201 28 37.2982 28 38L 28 57.9658L 34.6213 63.2164C 34.8605 63.4061 35 63.6947 35 64L 35 84C 35 84.6414 35.2219 85.1289 35.5482 85.4542C 35.8748 85.7799 36.363 86 37 86L 49 86C 49.66 86 50.1452 85.7897 50.4602 85.4828C 50.7711 85.1799 51 84.7018 51 84L 51 64C 51 63.6917 51.1422 63.4006 51.3855 63.2111L 58 58.0586L 58 38C 58 37.3358 57.7877 36.8514 57.4802 36.5376C 57.176 36.2269 56.697 36 56 36L 30 36C 29.34 36 28.8548 36.2103 28.5398 36.5172Z"/>
<path id="path4_fill" d="M 58 30C 58 29.4478 58.4477 29 59 29L 82 29C 83.1552 29 84.1763 29.39 84.9089 30.1379C 85.6384 30.8826 86 31.8981 86 33L 86 53.5471C 86 53.8555 85.8578 54.1466 85.6145 54.3361L 79 59.4886L 79 79C 79 80.1624 78.6063 81.1843 77.8558 81.9153C 77.1096 82.6425 76.0947 83 75 83L 63 83C 61.8823 83 60.8705 82.603 60.1358 81.8704C 59.4007 81.1372 59 80.1248 59 79L 59 65C 59 64.4478 59.4477 64 60 64C 60.5523 64 61 64.4478 61 65L 61 79C 61 79.6414 61.2219 80.1289 61.5482 80.4542C 61.8748 80.7799 62.363 81 63 81L 75 81C 75.66 81 76.1452 80.7897 76.4602 80.4828C 76.7711 80.1799 77 79.7018 77 79L 77 59C 77 58.6917 77.1422 58.4006 77.3855 58.2111L 84 53.0586L 84 33C 84 32.3358 83.7877 31.8514 83.4802 31.5376C 83.176 31.2269 82.697 31 82 31L 59 31C 58.4477 31 58 30.5522 58 30Z"/>
<path id="path5_fill" d="M 70 37C 70 36.4478 69.5523 36 69 36C 68.4477 36 68 36.4478 68 37L 68 48C 68 48.5522 68.4477 49 69 49C 69.5523 49 70 48.5522 70 48L 70 37Z"/>
<path id="path6_fill" d="M 4 29C 2.90533 29 1.89044 29.3575 1.14417 30.0847C 0.393738 30.8158 0 31.8376 0 33L 0 53.4491C 0 53.7544 0.139465 54.043 0.378662 54.2325L 7 59.4833L 7 79C 7 80.1248 7.4007 81.1372 8.1358 81.8704C 8.87054 82.603 9.88226 83 11 83L 23 83C 24.0947 83 25.1096 82.6425 25.8558 81.9153C 26.6063 81.1843 27 80.1624 27 79L 27 65C 27 64.4478 26.5523 64 26 64C 25.4477 64 25 64.4478 25 65L 25 79C 25 79.7018 24.7711 80.1799 24.4602 80.4828C 24.1452 80.7897 23.66 81 23 81L 11 81C 10.363 81 9.87476 80.7799 9.54816 80.4542C 9.22192 80.1289 9 79.6414 9 79L 9 59C 9 58.6947 8.86053 58.4061 8.62134 58.2164L 2 52.9658L 2 33C 2 32.2982 2.22888 31.8201 2.53979 31.5172C 2.8548 31.2103 3.33997 31 4 31L 27 31C 27.5523 31 28 30.5522 28 30C 28 29.4478 27.5523 29 27 29L 4 29Z"/>
<path id="path7_fill" d="M 17 36C 17.5523 36 18 36.4478 18 37L 18 48C 18 48.5522 17.5523 49 17 49C 16.4477 49 16 48.5522 16 48L 16 37C 16 36.4478 16.4477 36 17 36Z"/>
<path id="path8_fill" fill-rule="evenodd" d="M 17 0C 10.3726 0 5 5.37256 5 12C 5 18.6274 10.3726 24 17 24C 23.6274 24 29 18.6274 29 12C 29 5.37256 23.6274 0 17 0ZM 7 12C 7 6.47717 11.4772 2 17 2C 22.5228 2 27 6.47717 27 12C 27 17.5228 22.5228 22 17 22C 11.4772 22 7 17.5228 7 12Z"/>
</defs>
</svg>
