<svg width="90" height="90" viewBox="0 0 90 90" version="1.1" xmlns="http://www.w3.org/2000/svg" xmlns:xlink="http://www.w3.org/1999/xlink">
<title>ico-cd-ml</title>
<desc>Created using Figma</desc>
<g id="Canvas" transform="translate(926 2748)">
<rect x="-926" y="-2748" fill="#0000" fill-opacity="0" width="90" height="90"/>
<clipPath id="clip-0" clip-rule="evenodd">
<path d="M -926 -2748L -836 -2748L -836 -2658L -926 -2658L -926 -2748Z" fill="#FFFFFF"/>
</clipPath>
<g id="ico-cd-ml" clip-path="url(#clip-0)">
<g id="Union">
<use xlink:href="#path0_fill" transform="translate(-925 -2747)" fill="#CDCFD4"/>
<use xlink:href="#path1_fill" transform="translate(-925 -2747)" fill="#CDCFD4"/>
<use xlink:href="#path2_fill" transform="translate(-925 -2747)" fill="#CDCFD4"/>
</g>
</g>
</g>
<defs>
<path id="path0_fill" fill-rule="evenodd" d="M 54 16C 54 16.5398 54.1069 17.0547 54.3007 17.5244L 51 20L 51 33.0608L 60 38.5608L 60 49.4392L 51 54.9392L 51 68L 54.3007 70.4756C 54.1069 70.9453 54 71.4602 54 72C 54 74.2092 55.7908 76 58 76C 60.2092 76 62 74.2092 62 72C 62 69.7908 60.2092 68 58 68C 57.0547 68 56.186 68.3276 55.5015 68.876L 53 67L 53 56.0608L 62 50.5608L 62 37.4392L 53 31.9392L 53 21L 55.5015 19.124C 56.186 19.6724 57.0547 20 58 20C 60.2092 20 62 18.2092 62 16C 62 13.7908 60.2092 12 58 12C 55.7908 12 54 13.7908 54 16ZM 58 18C 59.1046 18 60 17.1045 60 16C 60 14.8955 59.1046 14 58 14C 56.8954 14 56 14.8955 56 16C 56 17.1045 56.8954 18 58 18ZM 60 72C 60 73.1045 59.1046 74 58 74C 56.8954 74 56 73.1045 56 72C 56 70.8955 56.8954 70 58 70C 59.1046 70 60 70.8955 60 72Z"/>
<path id="path1_fill" fill-rule="evenodd" d="M 31.6993 17.5244C 31.8931 17.0547 32 16.5398 32 16C 32 13.7908 30.2092 12 28 12C 25.7908 12 24 13.7908 24 16C 24 18.2092 25.7908 20 28 20C 28.9453 20 29.814 19.6724 30.4985 19.124L 33 21L 33 31.9392L 24 37.4392L 24 50.5608L 33 56.0608L 33 67L 30.4985 68.876C 29.814 68.3276 28.9453 68 28 68C 25.7908 68 24 69.7908 24 72C 24 74.2092 25.7908 76 28 76C 30.2092 76 32 74.2092 32 72C 32 71.4602 31.8931 70.9453 31.6993 70.4756L 35 68L 35 54.9392L 26 49.4392L 26 38.5608L 35 33.0608L 35 20L 31.6993 17.5244ZM 26 16C 26 17.1045 26.8954 18 28 18C 29.1046 18 30 17.1045 30 16C 30 14.8955 29.1046 14 28 14C 26.8954 14 26 14.8955 26 16ZM 28 74C 26.8954 74 26 73.1045 26 72C 26 70.8955 26.8954 70 28 70C 29.1046 70 30 70.8955 30 72C 30 73.1045 29.1046 74 28 74Z"/>
<path id="path2_fill" fill-rule="evenodd" d="M 33.5 0L 43 5.52319L 52.5 0L 74 12.5L 74 24.5232L 86 31.5L 86 56.5L 74 63.4768L 74 75.5L 52.5 88L 43 82.4768L 33.5 88L 12 75.5L 12 63.4768L 0 56.5L 0 31.5L 12 24.5232L 12 12.5L 33.5 0ZM 44 7.25537L 52.5 2.31348L 72 13.6506L 72 23.9114L 69.1282 25.5068C 68.3953 24.5884 67.2664 24 66 24C 63.7908 24 62 25.7908 62 28C 62 30.2092 63.7908 32 66 32C 68.2092 32 70 30.2092 70 28C 70 27.7754 69.9815 27.5552 69.9459 27.3406L 72.4622 25.9426L 84 32.6506L 84 43.0002L 79.8592 43.0002C 79.396 41.3035 77.8437 40.0562 76 40.0562C 73.7908 40.0562 72 41.8469 72 44.0562C 72 46.2654 73.7908 48.0562 76 48.0562C 77.884 48.0562 79.4637 46.7539 79.8879 45.0002L 84 45.0002L 84 55.3494L 72.4625 62.0574L 69.9542 60.6638C 69.9844 60.4656 70 60.2627 70 60.0562C 70 57.8469 68.2092 56.0562 66 56.0562C 63.7908 56.0562 62 57.8469 62 60.0562C 62 62.2654 63.7908 64.0562 66 64.0562C 67.2844 64.0562 68.4273 63.4509 69.1592 62.51L 72 64.0884L 72 74.3494L 52.5 85.6865L 44 80.7446L 44 45.0002L 47.1261 45.0002C 47.5702 46.7253 49.1362 48 51 48C 53.2092 48 55 46.2092 55 44C 55 41.7908 53.2092 40 51 40C 49.136 40 47.5699 41.2749 47.1259 43.0002L 44 43.0002L 44 7.25537ZM 42 7.25537L 33.5 2.31348L 14 13.6506L 14 23.9114L 16.8718 25.5068C 17.6047 24.5884 18.7336 24 20 24C 22.2092 24 24 25.7908 24 28C 24 30.2092 22.2092 32 20 32C 17.7908 32 16 30.2092 16 28C 16 27.7754 16.0185 27.5552 16.0541 27.3406L 13.5378 25.9426L 2 32.6506L 2 43.0002L 6.14081 43.0002C 6.604 41.3035 8.15631 40.0562 10 40.0562C 12.2092 40.0562 14 41.8469 14 44.0562C 14 46.2654 12.2092 48.0562 10 48.0562C 8.11603 48.0562 6.53632 46.7539 6.11206 45.0002L 2 45.0002L 2 55.3494L 13.5375 62.0574L 16.0458 60.6638C 16.0156 60.4656 16 60.2627 16 60.0562C 16 57.8469 17.7908 56.0562 20 56.0562C 22.2092 56.0562 24 57.8469 24 60.0562C 24 62.2654 22.2092 64.0562 20 64.0562C 18.7156 64.0562 17.5727 63.4509 16.8408 62.51L 14 64.0884L 14 74.3494L 33.5 85.6865L 42 80.7446L 42 45.0002L 38.8739 45.0002C 38.4298 46.7253 36.8638 48 35 48C 32.7908 48 31 46.2092 31 44C 31 41.7908 32.7908 40 35 40C 36.864 40 38.4301 41.2749 38.8741 43.0002L 42 43.0002L 42 7.25537ZM 66 30C 67.1046 30 68 29.1045 68 28C 68 26.8955 67.1046 26 66 26C 64.8954 26 64 26.8955 64 28C 64 29.1045 64.8954 30 66 30ZM 68 60.0562C 68 58.9517 67.1046 58.0562 66 58.0562C 64.8954 58.0562 64 58.9517 64 60.0562C 64 61.1606 64.8954 62.0562 66 62.0562C 67.1046 62.0562 68 61.1606 68 60.0562ZM 78 44.0562C 78 42.9517 77.1046 42.0562 76 42.0562C 74.8954 42.0562 74 42.9517 74 44.0562C 74 45.1606 74.8954 46.0562 76 46.0562C 77.1046 46.0562 78 45.1606 78 44.0562ZM 49 44C 49 42.8955 49.8954 42 51 42C 52.1046 42 53 42.8955 53 44C 53 45.1045 52.1046 46 51 46C 49.8954 46 49 45.1045 49 44ZM 18 28C 18 29.1045 18.8954 30 20 30C 21.1046 30 22 29.1045 22 28C 22 26.8955 21.1046 26 20 26C 18.8954 26 18 26.8955 18 28ZM 20 58.0562C 18.8954 58.0562 18 58.9517 18 60.0562C 18 61.1606 18.8954 62.0562 20 62.0562C 21.1046 62.0562 22 61.1606 22 60.0562C 22 58.9517 21.1046 58.0562 20 58.0562ZM 10 42.0562C 8.89545 42.0562 8 42.9517 8 44.0562C 8 45.1606 8.89545 46.0562 10 46.0562C 11.1046 46.0562 12 45.1606 12 44.0562C 12 42.9517 11.1046 42.0562 10 42.0562ZM 35 42C 36.1046 42 37 42.8955 37 44C 37 45.1045 36.1046 46 35 46C 33.8954 46 33 45.1045 33 44C 33 42.8955 33.8954 42 35 42Z"/>
</defs>
</svg>
