<svg width="90" height="90" viewBox="0 0 90 90" version="1.1" xmlns="http://www.w3.org/2000/svg" xmlns:xlink="http://www.w3.org/1999/xlink">
<title>ico-ls-lsoftdevelopment</title>
<desc>Created using Figma</desc>
<g id="Canvas" transform="translate(926 -590)">
<rect x="-926" y="590" fill="#0000" fill-opacity="0" width="90" height="90"/>
<clipPath id="clip-0" clip-rule="evenodd">
<path d="M -926 590L -836 590L -836 680L -926 680L -926 590Z" fill="#FFFFFF"/>
</clipPath>
<g id="ico-ls-lsoftdevelopment" clip-path="url(#clip-0)">
<g id="Group">
<g id="Union">
<use xlink:href="#path0_fill" transform="matrix(1 0 0 1 -924.78 591.22)" fill="#CDCFD4"/>
</g>
</g>
</g>
</g>
<defs>
<path id="path0_fill" d="M 57.5685 1.70711C 57.959 1.3166 57.959 0.683426 57.5685 0.292923C 57.178 -0.097641 56.5448 -0.097641 56.1542 0.292923L 52.2718 4.17537C 52.2695 4.17757 52.2673 4.17976 52.2651 4.18196C 52.2629 4.18416 52.2607 4.18636 52.2585 4.18861L 47.9097 8.53749C 38.4528 17.9944 36.4108 32.5746 42.9058 44.2656C 48.1686 53.7387 47.4253 65.2444 41.3613 73.8883L 26.1022 58.6292C 25.7117 58.2387 25.0786 58.2387 24.688 58.6292C 24.2975 59.0198 24.2975 59.6529 24.688 60.0435L 40.1427 75.4981C 39.548 76.2273 38.9123 76.9318 38.2359 77.6082L 34.5875 81.2567L 6.30328 52.9724L 9.95166 49.3241C 10.6281 48.6477 11.3325 48.0119 12.0618 47.4172L 20.4454 55.8008C 20.8359 56.1913 21.4691 56.1913 21.8596 55.8008C 22.2501 55.4102 22.2501 54.7771 21.8596 54.3866L 13.6716 46.1986C 16.0161 44.5539 18.5712 43.3006 21.2391 42.4524L 40.2444 61.4577C 40.6349 61.8482 41.2681 61.8482 41.6586 61.4577C 42.0491 61.0672 42.0491 60.434 41.6586 60.0435L 23.4606 41.8455C 27.4103 40.9393 31.541 40.8936 35.5546 41.75C 35.9186 40.9393 35.7845 40.2552 35.4488 39.6871C 30.7674 38.7754 25.9534 39.0018 21.4158 40.3092C 21.2859 40.3209 21.1579 40.3579 21.0397 40.4202C 16.4281 41.8145 12.116 44.3313 8.53741 47.9098L 4.1925 52.2547L 4.18188 52.2652L 4.17139 52.2758L 0.292847 56.1544C -0.0976562 56.5449 -0.0975952 57.1781 0.292908 57.5686C 0.683411 57.9591 1.31653 57.9591 1.70709 57.5687L 4.8891 54.3867L 33.1733 82.6709L 29.9913 85.8528C 29.6008 86.2434 29.6008 86.8765 29.9913 87.267C 30.3818 87.6575 31.015 87.6575 31.4056 87.267L 39.6501 79.0225C 49.1071 69.5656 51.1491 54.9854 44.6541 43.2943C 41.2319 37.1345 40.3493 30.1151 41.8178 23.582L 50.1503 31.7655C 50.5443 32.1524 51.1774 32.1467 51.5645 31.7527C 51.9514 31.3587 51.9457 30.7255 51.5517 30.3385L 42.413 21.3634C 43.2617 18.6503 44.5284 16.0521 46.1989 13.6711L 66.0739 33.4881C 66.465 33.8781 67.0981 33.8772 67.4881 33.486C 67.8781 33.095 67.8771 32.4618 67.486 32.0719L 47.4172 12.0616C 48.0118 11.3325 48.6475 10.6281 49.3239 9.95174L 52.9723 6.3033L 81.2566 34.5876L 77.6082 38.2361C 74.3671 41.4771 70.4812 43.7849 66.3209 45.1077L 59.3363 38.1231C 58.9457 37.7326 58.3126 37.7326 57.9221 38.1231C 57.5316 38.5136 57.5316 39.1468 57.9221 39.5373L 64.0993 45.7146C 60.1429 46.6223 56.0049 46.6668 51.9848 45.8058C 51.7817 46.5345 52.0381 47.2781 52.4433 47.9357C 57.0201 48.7734 61.7141 48.5273 66.1445 47.2507C 66.274 47.239 66.4017 47.2022 66.5197 47.14C 71.1314 45.7458 75.4437 43.229 79.0224 39.6503L 87.267 31.4058C 87.6575 31.0152 87.6575 30.382 87.267 29.9915C 86.8765 29.601 86.2433 29.601 85.8528 29.9915L 82.6708 33.1734L 54.3865 4.88911L 57.5685 1.70711Z"/>
</defs>
</svg>
